<svg width="38" height="30" viewBox="0 0 38 30" fill="none" xmlns="http://www.w3.org/2000/svg">
<path d="M33.25 0H4.75C3.49063 0.0013536 2.28324 0.504628 1.39273 1.39939C0.502225 2.29416 0.00134716 3.50734 0 4.77273V25.2273C0.00134716 26.4927 0.502225 27.7058 1.39273 28.6006C2.28324 29.4954 3.49063 29.9986 4.75 30H33.25C34.5094 29.9986 35.7168 29.4954 36.6073 28.6006C37.4978 27.7058 37.9986 26.4927 38 25.2273V4.77273C37.9986 3.50734 37.4978 2.29416 36.6073 1.39939C35.7168 0.504628 34.5094 0.0013536 33.25 0ZM32.0472 7.8946L19.8329 17.4401C19.5948 17.6261 19.3017 17.7271 19 17.7271C18.6983 17.7271 18.4052 17.6261 18.1671 17.4401L5.95277 7.8946C5.80926 7.78571 5.68872 7.64925 5.59816 7.49315C5.50759 7.33704 5.44881 7.16441 5.42522 6.98528C5.40163 6.80615 5.41371 6.6241 5.46075 6.4497C5.50779 6.2753 5.58885 6.11203 5.69924 5.96939C5.80962 5.82674 5.94711 5.70756 6.10373 5.61877C6.26035 5.52998 6.43297 5.47334 6.61156 5.45217C6.79015 5.43099 6.97115 5.44568 7.14404 5.4954C7.31693 5.54511 7.47826 5.62885 7.61866 5.74176L19 14.6361L30.3813 5.74176C30.6659 5.52581 31.0237 5.4311 31.3772 5.47811C31.7308 5.52511 32.0517 5.71006 32.2706 5.99295C32.4895 6.27583 32.5888 6.63393 32.547 6.9898C32.5052 7.34566 32.3257 7.67069 32.0472 7.8946Z" fill="white"/>
</svg>
