<svg width="37" height="37" viewBox="0 0 37 37" fill="none" xmlns="http://www.w3.org/2000/svg">
<path d="M29.6475 36.9997C28.035 36.9997 25.77 36.4166 22.3782 34.522C18.2536 32.2094 15.0634 30.0745 10.9612 25.9838C7.00598 22.0318 5.08125 19.4732 2.38747 14.5723C-0.655744 9.03874 -0.136978 6.13817 0.442918 4.89849C1.13351 3.41682 2.15287 2.53063 3.47043 1.65104C4.2188 1.16081 5.01077 0.740579 5.83628 0.395667C5.91888 0.360153 5.99571 0.326291 6.06427 0.295733C6.47317 0.111557 7.09271 -0.166773 7.87747 0.130552C8.4012 0.327117 8.86875 0.729332 9.60064 1.452C11.1016 2.93201 13.1527 6.22819 13.9094 7.84696C14.4174 8.93798 14.7536 9.65817 14.7544 10.4659C14.7544 11.4116 14.2786 12.1408 13.7012 12.9279C13.593 13.0758 13.4856 13.217 13.3815 13.3541C12.7529 14.18 12.6149 14.4187 12.7058 14.8448C12.89 15.7013 14.2638 18.2509 16.5214 20.5031C18.779 22.7553 21.2555 24.0421 22.1155 24.2254C22.5599 24.3204 22.8036 24.1767 23.6561 23.5259C23.7783 23.4326 23.9039 23.3359 24.0352 23.2393C24.9158 22.5844 25.6114 22.121 26.5349 22.121H26.5399C27.3436 22.121 28.0317 22.4696 29.1717 23.0444C30.6586 23.7943 34.0545 25.8186 35.5439 27.3209C36.2684 28.051 36.6723 28.5168 36.8698 29.0396C37.1671 29.8267 36.8871 30.4437 36.7045 30.8566C36.674 30.9252 36.6401 31.0003 36.6046 31.0837C36.2569 31.9076 35.8341 32.6978 35.3415 33.4442C34.4634 34.7574 33.5738 35.774 32.0885 36.4653C31.3258 36.826 30.4912 37.0087 29.6475 36.9997Z" fill="white"/>
</svg>
