<svg width="43" height="45" viewBox="0 0 43 45" fill="none" xmlns="http://www.w3.org/2000/svg">
<path d="M21.5 0C9.64502 0 0 10.0936 0 22.5C0 34.9064 9.64502 45 21.5 45C33.355 45 43 34.9064 43 22.5C43 10.0936 33.355 0 21.5 0ZM29.2844 28.1996C29.4445 28.3588 29.5725 28.5498 29.6608 28.7615C29.7492 28.9732 29.7962 29.2013 29.799 29.4323C29.8019 29.6632 29.7605 29.8925 29.6773 30.1065C29.5941 30.3205 29.4709 30.5149 29.3148 30.6782C29.1587 30.8416 28.9729 30.9706 28.7684 31.0576C28.5639 31.1447 28.3449 31.188 28.1242 31.185C27.9034 31.1821 27.6855 31.1329 27.4832 31.0404C27.2809 30.9479 27.0984 30.814 26.9463 30.6465L21.5 24.948L16.0537 30.6465C15.741 30.9574 15.3246 31.1282 14.8934 31.1224C14.4621 31.1166 14.0501 30.9347 13.7451 30.6156C13.4401 30.2964 13.2664 29.8652 13.2608 29.4139C13.2553 28.9626 13.4185 28.5269 13.7156 28.1996L19.1608 22.5L13.7156 16.8004C13.4185 16.4731 13.2553 16.0374 13.2608 15.5861C13.2664 15.1348 13.4401 14.7036 13.7451 14.3844C14.0501 14.0653 14.4621 13.8834 14.8934 13.8776C15.3246 13.8719 15.741 14.0426 16.0537 14.3535L21.5 20.052L26.9463 14.3535C27.259 14.0426 27.6754 13.8719 28.1066 13.8776C28.5379 13.8834 28.9499 14.0653 29.2549 14.3844C29.5599 14.7036 29.7336 15.1348 29.7392 15.5861C29.7447 16.0374 29.5815 16.4731 29.2844 16.8004L23.8392 22.5L29.2844 28.1996Z" fill="white"/>
</svg>
